<svg height="491pt" viewBox="-38 0 491 491.312" width="491pt" xmlns="http://www.w3.org/2000/svg"><path d="m280.421875 387.3125c15.367187 0 30.269531-5.234375 42.269531-14.832031 13.761719-11.007813 22.6875-26.960938 24.871094-44.449219l1.503906-12.03125c1.761719-14.113281 13.761719-24.695312 27.976563-24.695312 13.441406 0 25.007812 9.488281 27.648437 22.664062 2.28125 11.414062 2 23.191406-.824218 34.488281-7.429688 29.734375-27.488282 54.734375-54.902344 68.4375-13.679688 6.859375-28.777344 10.417969-44.074219 10.417969h-32.734375v-40zm0 0" fill="#a0d468"/><path d="m295.628906 385.527344c-4.960937 1.144531-10.058594 1.785156-15.207031 1.785156h-8.265625v40h16.945312zm0 0" fill="#8cc152"/><path d="m152.15625 379.3125-39.105469-52.136719c-5.917969-7.894531-11.117187-16.304687-15.535156-25.136719l-1.261719-2.535156c-10.585937-21.167968-16.097656-44.519531-16.097656-68.191406 0-19.878906-16.121094-36-36-36s-36 16.121094-36 36c0 28.734375 8.191406 56.878906 23.625 81.121094 21.277344 33.429687 50.238281 61.292968 84.472656 81.261718l43.902344 25.617188zm0 0" fill="#a0d468"/><path d="m140.140625 407.632812 20.015625 11.679688-8-40-20.769531-27.695312zm0 0" fill="#8cc152"/><path d="m168.15625 483.3125-38.945312-249.25c-.703126-4.496094-1.054688-9.039062-1.054688-13.582031v-17.167969c0-48.601562 39.398438-88 88-88s88 39.398438 88 88v17.167969c0 4.550781-.351562 9.085937-1.054688 13.582031l-38.945312 249.25zm0 0" fill="#a0d468"/><path d="m216.15625 115.3125c-10.96875 0-21.417969 2.09375-31.105469 5.757812l7.105469 362.242188h48l7.105469-362.242188c-9.691407-3.664062-20.136719-5.757812-31.105469-5.757812zm0 0" fill="#8cc152"/><path d="m254.78125 34.742188c-10.25 0-20.074219 4.074218-27.3125 11.3125-7.242188 7.25-11.3125 17.074218-11.3125 27.3125v17.945312h17.945312c10.246094 0 20.070313-4.074219 27.308594-11.3125 7.242188-7.238281 11.3125-17.070312 11.3125-27.3125v-17.945312zm0 0" fill="#ec87c0"/><path d="m205.410156 46.625c-7.246094-7.242188-17.070312-11.3125-27.308594-11.3125h-17.945312v17.945312c0 10.246094 4.070312 20.070313 11.3125 27.308594 7.246094 7.242188 17.070312 11.3125 27.3125 11.3125h17.941406v-17.941406c0-10.242188-4.070312-20.066406-11.3125-27.3125zm0 0" fill="#ec87c0"/><path d="m228.84375 24-12.6875-12.6875-12.6875 12.6875c-7.242188 7.238281-11.3125 17.0625-11.3125 27.3125 0 10.246094 4.070312 20.070312 11.3125 27.3125l12.6875 12.6875 12.6875-12.6875c7.242188-7.242188 11.3125-17.066406 11.3125-27.3125 0-10.25-4.070312-20.074219-11.3125-27.3125zm0 0" fill="#f29ed0"/><g fill="#d770ad"><path d="m256.15625 51.3125c0-5.671875-.878906-11.199219-2.535156-16.457031-5.511719.167969-10.832032 1.601562-15.714844 3.953125 1.378906 4 2.25 8.191406 2.25 12.503906 0 10.246094-4.070312 20.070312-11.3125 27.3125 7.242188-7.242188 17.0625-11.3125 27.3125-11.3125 4.3125 0 8.503906.871094 12.503906 2.246094 2.351563-4.886719 3.785156-10.199219 3.953125-15.710938-5.257812-1.65625-10.785156-2.535156-16.457031-2.535156zm0 0"/><path d="m176.15625 67.3125c10.246094 0 20.070312 4.070312 27.3125 11.3125-7.242188-7.242188-11.3125-17.066406-11.3125-27.3125 0-4.234375.855469-8.34375 2.175781-12.28125-4.929687-2.277344-10.289062-3.617188-15.824219-3.679688-1.542968 5.105469-2.351562 10.472657-2.351562 15.960938-5.488281 0-10.855469.808594-15.960938 2.359375.066407 5.535156 1.402344 10.886719 3.679688 15.824219 3.9375-1.328125 8.050781-2.183594 12.28125-2.183594zm0 0"/><path d="m216.15625 91.3125-.566406.566406h1.132812v-1.136718zm0 0"/></g><path d="m203.46875 78.625c-7.242188-7.242188-17.066406-11.3125-27.3125-11.3125-10.25 0-20.070312 4.070312-27.3125 11.3125l-12.6875 12.6875 12.6875 12.6875c7.242188 7.238281 17.0625 11.3125 27.3125 11.3125 10.246094 0 20.070312-4.074219 27.3125-11.3125l12.6875-12.6875zm0 0" fill="#f29ed0"/><path d="m283.46875 78.625c-7.242188-7.242188-17.066406-11.3125-27.3125-11.3125-10.25 0-20.070312 4.070312-27.3125 11.3125l-12.6875 12.6875 12.6875 12.6875c7.242188 7.238281 17.0625 11.3125 27.3125 11.3125 10.246094 0 20.070312-4.074219 27.3125-11.3125l12.6875-12.6875zm0 0" fill="#f29ed0"/><path d="m253.699219 67.550781c-9.335938.601563-18.199219 4.417969-24.855469 11.074219l-12.6875 12.6875 11.3125 11.3125 12.6875-12.6875c6.367188-6.363281 10.953125-14.027344 13.542969-22.386719zm0 0" fill="#ec87c0"/><path d="m192.15625 89.9375 12.6875 12.6875 11.3125-11.3125-12.6875-12.6875c-6.65625-6.65625-15.519531-10.472656-24.855469-11.074219 2.589844 8.359375 7.175781 16.023438 13.542969 22.386719zm0 0" fill="#ec87c0"/><path d="m208.15625 131.3125h16v16h-16zm0 0"/><path d="m208.15625 163.3125h16v16h-16zm0 0"/><path d="m208.15625 195.3125h16v16h-16zm0 0"/><path d="m208.15625 227.3125h16v16h-16zm0 0"/><path d="m208.15625 259.3125h16v16h-16zm0 0"/><path d="m208.15625 291.3125h16v16h-16zm0 0"/><path d="m208.15625 323.3125h16v16h-16zm0 0"/><path d="m208.15625 355.3125h16v16h-16zm0 0"/><path d="m272.15625 187.3125h16v16h-16zm0 0"/><path d="m144.15625 187.3125h16v16h-16zm0 0"/><path d="m272.15625 235.3125h16v16h-16zm0 0"/><path d="m144.15625 235.3125h16v16h-16zm0 0"/><path d="m264.15625 291.3125h16v16h-16zm0 0"/><path d="m152.15625 291.3125h16v16h-16zm0 0"/><path d="m208.15625 387.3125h16v16h-16zm0 0"/><path d="m208.15625 419.3125h16v16h-16zm0 0"/><path d="m208.15625 451.3125h16v16h-16zm0 0"/><path d="m412.53125 312.40625c-3.367188-16.863281-18.296875-29.09375-35.488281-29.09375-18.214844 0-33.65625 13.632812-35.910157 31.703125l-1.503906 12.03125c-1.945312 15.511719-9.730468 29.433594-21.9375 39.183594-8.390625 6.714843-18.503906 10.898437-29.085937 12.378906l22.390625-143.3125c.777344-4.871094 1.160156-9.863281 1.160156-14.816406v-17.167969c0-34.265625-18.105469-64.3125-45.191406-81.304688 8.320312-1.96875 15.96875-6.160156 22.167968-12.351562l18.335938-18.34375-18.34375-18.34375c-3.074219-3.074219-6.519531-5.632812-10.210938-7.703125 1.152344-4.097656 1.808594-8.335937 1.808594-12.578125v-25.945312h-25.941406c-4.242188 0-8.480469.664062-12.578125 1.816406-2.070313-3.6875-4.632813-7.132813-7.703125-10.207032l-18.34375-18.351562-18.34375 18.34375c-3.074219 3.070312-5.632812 6.519531-7.703125 10.207031-4.097656-1.144531-8.335937-1.808593-12.585937-1.808593h-25.945313v25.945312c0 4.242188.664063 8.480469 1.808594 12.578125-3.6875 2.070313-7.132813 4.628906-10.207031 7.703125l-18.335938 18.34375 18.34375 18.34375c6.191406 6.191406 13.847656 10.382812 22.167969 12.351562-27.09375 16.992188-45.199219 47.039063-45.199219 81.304688v17.167969c0 4.953125.382812 9.945312 1.152344 14.816406l17.671875 113.117187-19.527344-26.039062c-5.632813-7.503906-10.601563-15.550781-14.777344-23.910156l-1.265625-2.527344c-9.972656-19.960938-15.253906-42.3125-15.253906-64.625 0-24.265625-19.734375-44-44-44s-44 19.734375-44 44c0 30.304688 8.601562 59.839844 24.871094 85.421875 21.871094 34.363281 52.015625 63.371094 87.191406 83.882813l38.425781 22.40625 8.167969 52.289062h-46.65625v16h208v-16h-46.65625l6.246094-40h25.136718c16.457032 0 32.9375-3.886719 47.65625-11.25 29.535157-14.765625 51.074219-41.613281 59.089844-73.65625 3.09375-12.367188 3.40625-25.511719.902344-38zm-196.375-189.09375c8.265625 0 16.238281 1.261719 23.742188 3.597656l-7.574219 348.402344h-32.34375l-7.578125-348.402344c7.511718-2.335937 15.488281-3.597656 23.753906-3.597656zm-4.9375-15.753906 4.9375-4.933594 4.9375 4.933594c-1.648438-.078125-3.273438-.246094-4.9375-.246094s-3.289062.167969-4.9375.246094zm66.59375-9.214844c-11.570312 11.566406-31.746094 11.566406-43.3125 0l-7.03125-7.03125 7.03125-7.03125c11.566406-11.570312 31.742188-11.570312 43.3125 0l7.03125 7.03125zm-23.023438-55.601562h9.941407v9.945312c0 2.457031-.351563 4.90625-.941407 7.296875-2.503906-.417969-5.050781-.671875-7.632812-.671875-3 0-5.960938.296875-8.847656.847656.550781-2.886718.847656-5.847656.847656-8.847656 0-2.585938-.257812-5.128906-.671875-7.632812 2.398437-.582032 4.847656-.9375 7.304687-.9375zm-45.664062-13.085938 7.03125-7.03125 7.03125 7.03125c5.785156 5.785156 8.96875 13.480469 8.96875 21.65625s-3.183594 15.871094-8.96875 21.65625l-7.03125 7.03125-7.03125-7.03125c-5.785156-5.785156-8.96875-13.480469-8.96875-21.65625s3.183594-15.871094 8.96875-21.65625zm-41.535156 23.023438v-9.9375h9.941406c2.457031 0 4.90625.355468 7.296875.9375-.417969 2.503906-.671875 5.046874-.671875 7.632812 0 3 .296875 5.960938.847656 8.847656-2.886718-.550781-5.847656-.847656-8.847656-.847656-2.585938 0-5.128906.253906-7.632812.671875-.582032-2.398437-.933594-4.839844-.933594-7.304687zm-20.121094 38.632812 7.03125-7.03125c11.566406-11.570312 31.742188-11.570312 43.3125 0l7.03125 7.03125-7.03125 7.03125c-11.570312 11.566406-31.746094 11.566406-43.3125 0zm-27.183594 295.480469c-32.984375-19.234375-61.25-46.433594-81.753906-78.65625-14.640625-23-22.375-49.570313-22.375-76.824219 0-15.441406 12.558594-28 28-28s28 12.558594 28 28c0 24.792969 5.855469 49.609375 16.945312 71.785156l1.261719 2.527344c4.609375 9.207031 10.089844 18.078125 16.289063 26.351562l37.589844 50.121094 3.210937 20.542969zm16.832032-153.96875c-.632813-4.0625-.960938-8.214844-.960938-12.34375v-17.167969c0-29.703125 16.304688-55.617188 40.398438-69.417969l7.425781 341.417969h-8.976563zm111.214843 242.488281 7.425781-341.417969c24.09375 13.800781 40.398438 39.714844 40.398438 69.417969v17.167969c0 4.128906-.328125 8.28125-.960938 12.34375l-37.886718 242.488281zm147.777344-128.792969c-6.875 27.503907-25.363281 50.550781-50.722656 63.222657-12.511719 6.265624-26.511719 9.570312-40.496094 9.570312h-22.636719l1.246094-8h17.414062c19.433594 0 38.363282-6.847656 53.289063-19.289062 10.808594-9.007813 19.21875-20.703126 24.304687-33.816407l-14.910156-5.800781c-4.113281 10.59375-10.90625 20.042969-19.632812 27.3125-12.066406 10.066406-27.351563 15.59375-43.050782 15.59375h-14.910156l.039063-.242188c15.144531-1.132812 29.753906-6.824218 41.648437-16.335937 15.480469-12.375 25.351563-30.03125 27.816406-49.703125l1.503907-12.03125c1.257812-10.089844 9.863281-17.6875 20.03125-17.6875 9.59375 0 17.921875 6.832031 19.800781 16.230469 2.039062 10.191406 1.785156 20.90625-.734375 30.976562zm0 0"/><path d="m368.15625 328.070312c0 3.363282-.257812 6.738282-.753906 10.050782l15.824218 2.390625c.617188-4.105469.929688-8.289063.929688-12.441407v-4.757812h-16zm0 0"/><path d="m32.15625 219.3125h16v16h-16zm0 0"/><path d="m40.15625 259.3125h16v16h-16zm0 0"/><path d="m56.15625 299.3125h16v16h-16zm0 0"/><path d="m88.15625 339.3125h16v16h-16zm0 0"/><path d="m336.15625 475.3125h16v16h-16zm0 0"/><path d="m80.15625 475.3125h16v16h-16zm0 0"/></svg>