<svg height="512pt" viewBox="0 0 512 512" width="512pt" xmlns="http://www.w3.org/2000/svg" xmlns:xlink="http://www.w3.org/1999/xlink"><linearGradient id="a" gradientUnits="userSpaceOnUse" x1="0" x2="512" y1="256" y2="256"><stop offset="0" stop-color="#00f2fe"/><stop offset=".0208" stop-color="#03effe"/><stop offset=".2931" stop-color="#24d2fe"/><stop offset=".5538" stop-color="#3cbdfe"/><stop offset=".7956" stop-color="#4ab0fe"/><stop offset="1" stop-color="#4facfe"/></linearGradient><path d="m284 48v-28c0-11.046875 8.953125-20 20-20s20 8.953125 20 20v28c0 11.046875-8.953125 20-20 20s-20-8.953125-20-20zm208 140h-28c-11.046875 0-20 8.953125-20 20s8.953125 20 20 20h28c11.046875 0 20-8.953125 20-20s-8.953125-20-20-20zm-49.417969-39.996094c3.394531 0 6.832031-.863281 9.980469-2.683594l24.25-14c9.566406-5.523437 12.84375-17.753906 7.320312-27.320312-5.523437-9.566406-17.753906-12.84375-27.320312-7.320312l-24.25 14c-9.566406 5.523437-12.84375 17.753906-7.320312 27.320312 3.707031 6.417969 10.429687 10.003906 17.339843 10.003906zm-66.347656-59.929687c3.226563 1.945312 6.785156 2.871093 10.300781 2.871093 6.78125 0 13.394532-3.453124 17.148438-9.683593l14.449218-23.988281c5.695313-9.460938 2.648438-21.75-6.816406-27.449219-9.460937-5.699219-21.75-2.648438-27.449218 6.8125l-14.445313 23.984375c-5.699219 9.464844-2.652344 21.753906 6.8125 27.453125zm-169.554687-8.636719c3.707031 6.414062 10.425781 10 17.339843 10 3.390625 0 6.832031-.863281 9.980469-2.679688 9.566406-5.523437 12.84375-17.757812 7.320312-27.320312l-14-24.25c-5.523437-9.566406-17.757812-12.84375-27.320312-7.320312-9.566406 5.523437-12.84375 17.753906-7.320312 27.320312zm-73.035157 46.566406 23.804688 14.742188c3.28125 2.03125 6.917969 3 10.515625 3 6.691406 0 13.234375-3.359375 17.019531-9.46875 5.816406-9.390625 2.917969-21.71875-6.46875-27.535156l-23.804687-14.746094c-9.390626-5.8125-21.71875-2.917969-27.535157 6.472656-5.816406 9.386719-2.917969 21.71875 6.46875 27.535156zm341.71875 161.863282-23.984375-14.445313c-9.464844-5.699219-21.753906-2.652344-27.453125 6.8125-5.699219 9.460937-2.648437 21.75 6.8125 27.449219l23.988281 14.449218c3.226563 1.945313 6.785157 2.871094 10.300782 2.871094 6.78125 0 13.394531-3.453125 17.148437-9.683594 5.699219-9.464843 2.648438-21.753906-6.8125-27.453124zm-177.25 117.785156c-5.714843-9.453125-18.011719-12.480469-27.460937-6.765625l-13.652344 8.253906v-15.140625c0-11.046875-8.953125-20-20-20s-20 8.953125-20 20v13.929688l-11.652344-7.042969c-9.449218-5.714844-21.746094-2.6875-27.460937 6.765625-5.714844 9.453125-2.6875 21.746094 6.765625 27.460937l14.695312 8.886719-14.695312 8.886719c-9.453125 5.714843-12.480469 18.011719-6.765625 27.460937 3.757812 6.21875 10.359375 9.65625 17.132812 9.65625 3.523438 0 7.09375-.933594 10.328125-2.890625l11.652344-7.042969v13.929688c0 11.046875 8.953125 20 20 20s20-8.953125 20-20v-15.140625l13.652344 8.253906c3.234375 1.957031 6.804687 2.890625 10.328125 2.890625 6.769531 0 13.375-3.4375 17.132812-9.65625 5.714844-9.449218 2.6875-21.746094-6.765625-27.460937l-14.695312-8.886719 14.695312-8.886719c9.453125-5.714843 12.480469-18.007812 6.765625-27.460937zm129.15625-57.75c15.300781 15.367187 23.730469 35.617187 23.730469 57.015625 0 30.726562-17.96875 59.304687-45.777344 72.886719-5.929687 2.890624-19.71875 7.195312-33.433594 7.195312h-10.789062c-11.046875 0-20-8.953125-20-20s8.953125-20 20-20h10.789062c6.292969 0 13.8125-2.226562 15.949219-3.175781 14.132813-6.933594 23.261719-21.382813 23.261719-36.824219 0-22.261719-18.691406-41-40.820312-41-10.988282 0-19.917969-8.867188-19.996094-19.855469-.003906-.183593-.136719-18.714843-.136719-30.144531 0-22.101562-17.980469-40.082031-40.082031-40.082031-11.800782 0-22.476563 4.726562-30.054688 13.316406-5.136718 5.816406-13.167968 8.136719-20.613281 5.960937-7.445313-2.179687-12.957031-8.46875-14.144531-16.132812-6.09375-39.316406-40.625-68.964844-80.324219-68.964844-45.121094 0-81.828125 36.464844-81.828125 81.289063v21.417969c0 7.398437-4.085938 14.195312-10.625 17.667968-19.945312 10.585938-32.347656 31.503906-32.375 54.601563.039062 34.152343 27.839844 61.925781 62 61.925781h12c11.046875 0 20 8.953125 20 20s-8.953125 20-20 20h-12c-56.152344 0-101.855469-45.613281-102-101.730469 0-.042969 0-.082031 0-.121093v-.148438c0-.039062 0-.078125 0-.117188.0859375-33.613281 16.277344-64.476562 43-83.230468v-10.265625c0-66.878907 54.652344-121.289063 121.828125-121.289063 11.882813 0 23.605469 1.753906 34.820313 5.132813 6.292968-18.851563 17.636718-35.828125 32.9375-48.898438 19.878906-16.980469 45.242187-26.332031 71.414062-26.332031 60.652344 0 110 49.347656 110 110 0 28.285156-10.808594 55.175781-30.003906 75.5 3.890625 9.40625 6.050781 19.703125 6.050781 30.5 0 3.699219.015625 8.164062.03125 12.5 13.902344 3.566406 26.695313 10.867188 37.191406 21.402344zm-68.011719-96.949219c9.476563-12.179687 14.742188-27.226563 14.742188-42.953125 0-38.597656-31.402344-70-70-70-32.605469 0-60.414062 22.125-67.984375 53.289062 2.789063 2.03125 5.503906 4.183594 8.128906 6.460938 13.875 12.046875 24.757813 26.980469 31.957031 43.566406 10.460938-4.820312 22-7.398437 33.863282-7.398437 18.582031 0 35.691406 6.378906 49.292968 17.035156zm0 0" fill="url(#a)"/></svg>